<svg version="1.1" id="Layer_1" xmlns="http://www.w3.org/2000/svg" xmlns:xlink="http://www.w3.org/1999/xlink" x="0px" y="0px"
	 width="100%" viewBox="0 0 4381 2905" enable-background="new 0 0 4381 2905" xml:space="preserve">
<path fill="#00000000" opacity="1.000000" stroke="none" 
	d="
M4060.000000,2908.000000 
	C2706.666748,2908.000000 1354.333374,2908.000000 2.000000,2908.000000 
	C2.000000,1939.333374 2.000000,970.666687 2.000000,2.000000 
	C1462.666626,2.000000 2923.333252,2.000000 4384.000000,2.000000 
	C4384.000000,970.666687 4384.000000,1939.333374 4384.000000,2908.000000 
	C4276.333496,2908.000000 4168.666504,2908.000000 4060.000000,2908.000000 
M1202.793091,1172.106689 
	C1201.331299,1172.778320 1199.869385,1173.449829 1196.893677,1174.104126 
	C1181.079590,1180.150513 1166.403442,1188.055176 1153.043579,1200.645142 
	C1137.473389,1215.091675 1124.991211,1231.632568 1117.297241,1253.200562 
	C1109.127197,1273.390015 1107.750366,1294.549927 1107.833374,1317.553467 
	C1105.274902,1339.387939 1099.304688,1360.212891 1089.067261,1379.707275 
	C1085.544678,1386.415039 1081.514404,1392.856201 1076.561401,1400.150635 
	C1066.197388,1414.533813 1053.485718,1426.638184 1038.652588,1438.160522 
	C1037.726685,1439.047729 1036.800781,1439.934814 1035.134888,1440.907104 
	C1034.656616,1441.151245 1034.366821,1441.536987 1032.893433,1442.378174 
	C1019.001892,1451.906494 1003.627869,1458.394897 986.406921,1464.258301 
	C935.414246,1478.389404 887.493164,1470.697388 842.203613,1443.285034 
	C843.187622,1446.452271 844.409241,1448.779785 845.788269,1451.010132 
	C870.039856,1490.233765 901.781860,1521.968506 941.021423,1546.201904 
	C946.108154,1549.343262 951.168884,1552.526489 956.024658,1557.592896 
	C956.015076,1576.911987 956.093567,1596.231445 955.980591,1615.549927 
	C955.507690,1696.438599 1027.771240,1765.768433 1115.952393,1750.088501 
	C1175.881470,1739.432251 1223.732666,1685.382568 1225.728882,1624.654175 
	C1226.483276,1601.702759 1225.782349,1578.703369 1226.632080,1554.751831 
	C1231.090698,1551.809448 1235.549316,1548.867188 1241.353882,1545.628540 
	C1242.207886,1545.113403 1243.077515,1544.622559 1243.913208,1544.079346 
	C1267.980957,1528.438721 1290.227661,1510.712036 1309.311401,1487.421997 
	C1317.752319,1475.987793 1326.298340,1464.628662 1334.552734,1453.061279 
	C1336.397827,1450.475586 1337.218994,1447.159180 1339.749634,1443.611572 
	C1350.794800,1425.646484 1359.548584,1406.666992 1365.835693,1384.921631 
	C1366.801025,1379.614868 1366.847046,1373.918457 1368.900513,1369.072754 
	C1375.587769,1353.293091 1376.392578,1336.643311 1377.929077,1318.151001 
	C1378.062500,1312.494019 1378.199219,1306.837280 1378.328857,1301.180176 
	C1379.615845,1244.987305 1341.834229,1188.522949 1280.875366,1171.059326 
	C1255.388550,1163.757690 1229.769653,1163.294922 1204.165405,1171.979980 
	C1204.165405,1171.979980 1204.015625,1172.213745 1202.793091,1172.106689 
M827.289368,1377.665039 
	C852.518738,1412.819702 886.729797,1432.750488 929.833496,1435.537354 
	C1013.448914,1440.943726 1081.031006,1369.980957 1072.431396,1286.691895 
	C1063.768921,1202.795776 980.728699,1147.192261 900.072937,1171.331787 
	C811.674744,1197.788696 775.704773,1301.013672 827.289368,1377.665039 
M2382.131104,1578.443970 
	C2382.973633,1577.669556 2383.816162,1576.895264 2386.397217,1574.522949 
	C2386.397217,1587.119873 2386.397217,1597.536011 2386.397217,1608.356812 
	C2396.215820,1608.356812 2404.865967,1608.372559 2413.516113,1608.352539 
	C2422.361328,1608.332153 2431.206787,1608.276367 2439.902588,1608.236938 
	C2442.025635,1570.486694 2441.003418,1366.360840 2438.768066,1358.639648 
	C2421.526123,1358.639648 2404.319824,1358.639648 2385.752441,1358.639648 
	C2385.752441,1369.395386 2385.752441,1379.695679 2385.752441,1391.757935 
	C2381.945557,1387.647705 2379.724365,1385.182861 2377.432129,1382.785522 
	C2364.689941,1369.458862 2349.419678,1360.465698 2331.552490,1355.799072 
	C2280.058105,1342.349976 2229.307861,1361.005859 2198.043945,1405.287964 
	C2177.211914,1434.794067 2171.690186,1467.799194 2175.584961,1503.221069 
	C2181.727295,1559.088623 2230.319336,1612.573975 2291.685791,1614.899170 
	C2326.810547,1616.229980 2357.576172,1607.191895 2382.131104,1578.443970 
M2713.980957,1635.181641 
	C2714.991455,1632.718994 2716.071533,1630.282227 2717.002441,1627.789795 
	C2749.937744,1539.592407 2782.863037,1451.391113 2815.745605,1363.174072 
	C2816.263184,1361.785156 2816.229248,1360.190552 2816.476807,1358.532837 
	C2797.270264,1358.532837 2778.712402,1358.532837 2759.592285,1358.532837 
	C2738.549072,1418.092041 2717.566895,1477.478516 2696.584961,1536.864868 
	C2682.534668,1507.095459 2670.382568,1477.616577 2658.265625,1448.123047 
	C2646.006836,1418.283936 2633.782715,1388.430664 2621.485840,1358.443115 
	C2601.877686,1358.443115 2582.620361,1358.443115 2562.509521,1358.443115 
	C2563.987061,1362.292114 2565.155273,1365.695557 2566.577881,1368.989014 
	C2597.581543,1440.769165 2628.604980,1512.540894 2659.646240,1584.304688 
	C2669.045654,1606.034790 2669.063232,1606.476074 2656.806152,1627.168945 
	C2655.111816,1630.028931 2653.302490,1632.843384 2651.304932,1635.497192 
	C2640.858643,1649.377686 2626.842285,1656.670898 2609.570312,1657.826660 
	C2606.340576,1658.042725 2603.105957,1658.184570 2599.241211,1658.395020 
	C2599.241211,1675.208374 2599.241211,1691.381104 2599.241211,1707.990601 
	C2614.376221,1708.874023 2628.905029,1707.927246 2643.329590,1705.202759 
	C2666.560059,1700.815063 2684.557373,1688.568604 2696.707275,1668.362427 
	C2702.863037,1658.124512 2707.897217,1647.212036 2713.980957,1635.181641 
M3295.156494,1441.304321 
	C3309.138428,1433.113159 3323.120361,1424.921997 3337.554443,1416.465942 
	C3332.504883,1406.364258 3326.781250,1397.829102 3319.407959,1390.582031 
	C3279.146729,1351.011353 3230.905029,1341.781372 3179.214355,1359.871338 
	C3097.427246,1388.494263 3076.524414,1476.430176 3105.755371,1539.634399 
	C3128.754639,1589.364014 3169.709229,1614.020996 3224.353027,1614.973145 
	C3259.455811,1615.584839 3290.410156,1604.082886 3316.104248,1579.703491 
	C3325.037354,1571.227539 3332.546387,1561.607300 3338.509766,1549.895996 
	C3330.554688,1545.293945 3323.145752,1540.962402 3315.692627,1536.708496 
	C3307.978760,1532.305786 3300.221924,1527.978027 3293.791016,1524.354126 
	C3285.192139,1532.940430 3278.442139,1541.986694 3269.645752,1548.077393 
	C3224.360107,1579.431519 3155.002197,1556.255859 3148.435059,1491.693726 
	C3142.931152,1437.588501 3187.664062,1396.521362 3240.968506,1406.463989 
	C3260.872070,1410.176636 3276.820801,1420.250732 3287.684082,1437.743896 
	C3289.076172,1439.985107 3289.519531,1444.103394 3295.156494,1441.304321 
M3510.077637,1470.953857 
	C3497.982422,1467.331787 3485.756104,1464.089844 3473.828125,1459.982300 
	C3461.615967,1455.776978 3449.373535,1451.393799 3437.757080,1445.813477 
	C3429.623047,1441.906006 3424.536621,1434.804443 3425.586182,1424.737427 
	C3426.644287,1414.589600 3432.729980,1408.533081 3441.521729,1404.765991 
	C3465.091797,1394.666626 3492.743652,1403.442139 3506.206055,1425.121460 
	C3507.042969,1426.469482 3508.089600,1427.687256 3509.283447,1429.295288 
	C3524.375977,1420.810425 3539.092285,1412.537109 3554.296387,1403.989502 
	C3543.645508,1384.509277 3528.874268,1370.779907 3509.587646,1361.863281 
	C3488.387451,1352.061646 3466.104980,1349.992676 3443.201904,1353.088623 
	C3423.916016,1355.695801 3406.958252,1363.340332 3392.052002,1376.051147 
	C3364.273193,1399.738159 3356.807129,1459.420654 3401.880859,1484.772461 
	C3413.089844,1491.077148 3425.371826,1495.683350 3437.533691,1500.024536 
	C3448.780273,1504.038696 3460.765137,1505.999878 3471.976562,1510.092896 
	C3480.607178,1513.243774 3489.244141,1517.336426 3496.632080,1522.720581 
	C3509.685547,1532.233643 3504.683105,1550.366211 3495.931396,1556.523682 
	C3492.199951,1559.148926 3487.872803,1561.338501 3483.490967,1562.551880 
	C3469.417969,1566.448730 3455.218018,1566.303467 3441.082764,1562.458984 
	C3427.096436,1558.654785 3417.001221,1550.103638 3410.257568,1537.403442 
	C3408.927490,1534.898438 3407.550781,1532.418579 3405.982666,1529.536011 
	C3390.167969,1538.771851 3375.075684,1547.585815 3359.926270,1556.432983 
	C3371.108398,1580.788818 3388.580078,1596.816284 3412.240479,1606.131958 
	C3436.759766,1615.785767 3462.111572,1617.114380 3487.879883,1612.808228 
	C3505.268066,1609.902588 3520.842285,1602.896362 3534.933350,1592.196655 
	C3566.893799,1567.928223 3571.593262,1507.023071 3529.930176,1481.433838 
	C3524.000244,1477.791504 3517.626465,1474.871704 3510.077637,1470.953857 
M1504.936401,1393.045288 
	C1504.936035,1428.684814 1504.874268,1464.324463 1504.983032,1499.963623 
	C1505.007324,1507.945312 1505.106812,1515.988159 1506.062744,1523.895142 
	C1510.818848,1563.229492 1530.594238,1591.747070 1568.093506,1606.109375 
	C1600.107544,1618.370605 1632.699951,1618.186157 1664.714600,1605.911865 
	C1695.009888,1594.296631 1714.816040,1572.407715 1722.934937,1540.903076 
	C1725.650269,1530.366577 1727.125366,1519.233887 1727.242188,1508.352905 
	C1727.714844,1464.391357 1727.450439,1420.421997 1727.398193,1376.455444 
	C1727.395264,1373.949219 1726.859497,1371.443481 1726.602661,1369.208008 
	C1708.841675,1369.208008 1691.984985,1369.208008 1674.315063,1369.208008 
	C1674.315063,1373.419678 1674.314941,1377.020996 1674.314941,1380.622437 
	C1674.314453,1420.258911 1674.330933,1459.895508 1674.292236,1499.531982 
	C1674.287354,1504.523560 1674.278931,1509.543335 1673.784668,1514.501465 
	C1671.254150,1539.885498 1657.992432,1556.684814 1635.662354,1562.775513 
	C1622.874268,1566.263428 1609.953735,1566.240112 1597.147827,1562.949219 
	C1578.887451,1558.256470 1566.503052,1546.874268 1561.720825,1528.620972 
	C1559.306274,1519.404907 1558.115234,1509.626709 1558.020508,1500.086304 
	C1557.623657,1460.120728 1557.851196,1420.148926 1557.850098,1380.179321 
	C1557.850098,1376.625977 1557.850098,1373.072510 1557.850098,1369.061157 
	C1539.858398,1369.061157 1523.025513,1369.061157 1504.936890,1369.061157 
	C1504.936890,1376.613525 1504.936890,1383.842041 1504.936401,1393.045288 
M2899.436279,1307.115967 
	C2899.392334,1300.929199 2899.348389,1294.742554 2899.303467,1288.443726 
	C2880.665039,1288.443726 2863.399414,1288.443726 2844.935791,1288.443726 
	C2844.935791,1292.320435 2844.935791,1295.893555 2844.935791,1299.466553 
	C2844.935791,1376.069946 2844.906494,1452.673462 2844.985107,1529.276855 
	C2844.992432,1536.256470 2845.380127,1543.268799 2846.125244,1550.208740 
	C2849.390137,1580.614990 2864.843750,1599.582764 2892.839844,1606.874023 
	C2914.784180,1612.589233 2937.047363,1611.343140 2959.269775,1608.420410 
	C2959.844971,1608.344727 2960.344482,1607.690552 2960.849854,1607.327271 
	C2960.849854,1591.768921 2960.849854,1576.243530 2960.849854,1560.311401 
	C2951.669678,1560.311401 2943.061768,1560.563232 2934.477051,1560.224976 
	C2928.531982,1559.990723 2922.498779,1559.468018 2916.718262,1558.143311 
	C2906.427734,1555.785034 2901.098633,1548.633667 2899.868896,1538.330444 
	C2899.553955,1535.692749 2899.458740,1533.015137 2899.456787,1530.355713 
	C2899.431641,1493.053223 2899.424805,1455.750610 2899.472900,1418.448120 
	C2899.476318,1415.903320 2899.956055,1413.359131 2900.279785,1410.167603 
	C2920.785889,1410.167603 2940.697998,1410.167603 2960.881348,1410.167603 
	C2960.881348,1392.639404 2960.881348,1375.832153 2960.881348,1357.971680 
	C2940.219971,1357.971680 2920.086670,1357.971680 2899.436279,1357.971680 
	C2899.436279,1340.972290 2899.436279,1325.026611 2899.436279,1307.115967 
M1968.448242,1610.648682 
	C1977.222656,1609.744995 1986.251221,1610.665649 1994.368652,1608.234863 
	C1994.368652,1591.481445 1994.368652,1575.969971 1994.368652,1560.110352 
	C1991.358398,1560.110352 1989.047485,1560.128052 1986.736694,1560.107300 
	C1977.078247,1560.020752 1967.360962,1560.563599 1957.774414,1559.685059 
	C1941.675537,1558.209717 1934.782104,1550.671265 1933.481445,1534.661865 
	C1933.238892,1531.676514 1933.091553,1528.674438 1933.089233,1525.679810 
	C1933.062378,1490.019531 1933.056030,1454.359131 1933.102661,1418.698853 
	C1933.105957,1416.139648 1933.565186,1413.580933 1933.866089,1410.466553 
	C1954.521729,1410.240845 1974.631104,1410.552002 1995.060425,1410.276978 
	C1995.060425,1400.531616 1995.290527,1392.203979 1994.996338,1383.895020 
	C1994.696899,1375.436035 1996.339600,1366.830200 1993.756836,1357.774170 
	C1973.469116,1357.774170 1953.572998,1357.774170 1932.654907,1357.774170 
	C1932.654907,1334.204224 1932.654907,1311.384155 1932.654907,1288.875244 
	C1914.122925,1288.875244 1896.649170,1288.875244 1878.565430,1288.875244 
	C1878.565430,1291.906372 1878.565552,1294.195312 1878.565552,1296.484253 
	C1878.565186,1373.137329 1878.516846,1449.790405 1878.633179,1526.443237 
	C1878.645752,1534.753906 1879.227051,1543.108276 1880.200195,1551.365112 
	C1883.963013,1583.288574 1901.464478,1602.492065 1932.845581,1608.092163 
	C1943.907593,1610.066284 1955.356079,1609.873779 1968.448242,1610.648682 
M1776.936401,1474.999634 
	C1776.936401,1519.204468 1776.936401,1563.409302 1776.936401,1607.901367 
	C1795.588013,1607.901367 1813.121216,1607.901367 1830.849854,1607.901367 
	C1830.849854,1501.262207 1830.849854,1395.110962 1830.849854,1288.671631 
	C1812.786621,1288.671631 1795.314697,1288.671631 1776.936768,1288.671631 
	C1776.936768,1350.470215 1776.936768,1411.734985 1776.936401,1474.999634 
M2480.565430,1311.057129 
	C2480.565430,1409.914429 2480.565430,1508.771606 2480.565430,1607.871826 
	C2499.253662,1607.871826 2516.779297,1607.871826 2534.493652,1607.871826 
	C2534.493652,1501.182007 2534.493652,1395.009644 2534.493652,1288.720215 
	C2516.424316,1288.720215 2498.937744,1288.720215 2480.565430,1288.720215 
	C2480.565430,1295.879272 2480.565430,1302.480225 2480.565430,1311.057129 
M2089.469482,1397.677002 
	C2088.792725,1394.755249 2087.623291,1391.848755 2087.532715,1388.908813 
	C2087.269531,1380.389282 2087.439453,1371.856201 2087.439453,1363.399048 
	C2068.948730,1363.399048 2051.860840,1363.399048 2034.853027,1363.399048 
	C2034.853027,1444.709229 2034.853027,1525.191895 2034.853027,1605.770874 
	C2052.572266,1605.770874 2069.744385,1605.770874 2087.434814,1605.770874 
	C2087.434814,1601.511475 2087.426270,1597.868164 2087.436279,1594.224976 
	C2087.544434,1554.912842 2087.160400,1515.590942 2087.926270,1476.291626 
	C2088.518311,1445.914551 2105.355957,1425.542114 2134.796387,1418.190552 
	C2143.368652,1416.050049 2152.383789,1415.684326 2161.695312,1414.438232 
	C2161.695312,1396.111572 2161.695312,1377.638916 2161.695312,1358.376587 
	C2130.831787,1358.647705 2106.132324,1368.929932 2089.469482,1397.677002 
M2217.941406,1828.905396 
	C2219.719971,1817.270264 2219.543457,1805.637573 2217.096436,1794.150635 
	C2206.735107,1745.514404 2157.281738,1715.240112 2107.996094,1727.232178 
	C2061.025879,1738.661011 2032.282959,1786.123901 2043.162720,1834.290771 
	C2054.005371,1882.293579 2101.174316,1912.265137 2149.680176,1900.864502 
	C2186.936523,1892.108154 2209.510498,1868.031372 2217.941406,1828.905396 
M1722.297363,1894.795044 
	C1741.125000,1903.486694 1760.798584,1905.205933 1780.841187,1900.805542 
	C1830.248413,1889.958252 1860.296875,1840.143433 1846.719727,1790.500366 
	C1837.177979,1755.612793 1813.762085,1733.396729 1778.394409,1726.583008 
	C1740.688721,1719.318848 1709.382812,1731.885254 1686.754761,1763.516968 
	C1661.456665,1798.880737 1664.275269,1865.359009 1722.297363,1894.795044 
M2488.589355,1823.662842 
	C2494.432617,1824.663208 2500.679932,1824.683105 2506.026123,1826.888550 
	C2514.511719,1830.388794 2518.171143,1837.879883 2518.043213,1847.011230 
	C2517.921143,1855.718750 2514.220703,1862.394287 2506.269043,1866.364502 
	C2492.821533,1873.078857 2468.166992,1870.341187 2461.620117,1852.693848 
	C2461.212158,1851.594482 2460.007568,1850.790527 2459.072998,1849.735474 
	C2454.122559,1852.603516 2449.510986,1855.250000 2444.924805,1857.940063 
	C2440.420410,1860.582275 2435.941650,1863.268677 2431.680176,1865.800049 
	C2436.500244,1879.276611 2444.258545,1888.601196 2456.224365,1894.732178 
	C2477.014648,1905.384155 2498.544678,1906.063599 2519.913330,1897.122681 
	C2542.926025,1887.494141 2553.624512,1867.799683 2551.963379,1840.536865 
	C2550.569092,1817.657715 2535.811035,1799.304810 2512.718994,1793.183105 
	C2504.793457,1791.082275 2496.299316,1791.063477 2488.046631,1790.287354 
	C2484.244141,1789.929810 2480.397461,1790.039185 2476.269531,1789.928955 
	C2477.104248,1779.469727 2477.838135,1770.273438 2478.648682,1760.114502 
	C2500.655029,1759.773682 2522.084229,1760.236084 2543.377441,1759.856445 
	C2543.377441,1748.601440 2543.377441,1738.778076 2543.377441,1728.728638 
	C2510.960693,1728.728638 2479.193604,1728.728638 2446.764648,1728.728638 
	C2444.484863,1760.352783 2442.247559,1791.391357 2439.921387,1823.660645 
	C2456.244629,1823.660645 2471.464111,1823.660645 2488.589355,1823.662842 
M3000.564697,1598.380981 
	C3000.751465,1601.549683 3000.938232,1604.718384 3001.119385,1607.795776 
	C3019.520020,1607.795776 3037.023682,1607.795776 3054.529541,1607.795776 
	C3054.529541,1533.737427 3054.529541,1460.272949 3054.529541,1386.509766 
	C3036.514893,1386.509766 3019.043701,1386.509766 3000.565186,1386.509766 
	C3000.565186,1456.854614 3000.565186,1526.680054 3000.564697,1598.380981 
M1545.642578,1759.142578 
	C1540.218994,1748.876831 1534.795410,1738.611084 1529.585938,1728.750732 
	C1516.782349,1728.750732 1504.699097,1728.750732 1491.620483,1728.750732 
	C1493.548828,1732.571167 1494.905151,1735.522339 1496.485596,1738.348267 
	C1512.071777,1766.216919 1527.539673,1794.153687 1543.411011,1821.859375 
	C1547.684692,1829.319580 1549.944702,1836.735962 1549.651611,1845.420654 
	C1549.146729,1860.380249 1549.484619,1875.369263 1549.534546,1890.345703 
	C1549.544189,1893.254639 1549.853149,1896.162476 1550.027588,1899.131226 
	C1561.275513,1899.131226 1571.798462,1899.131226 1583.003052,1899.131226 
	C1583.176147,1895.406860 1583.447754,1892.171387 1583.456543,1888.935181 
	C1583.499878,1872.960205 1583.627319,1856.982544 1583.391235,1841.010986 
	C1583.304688,1835.155640 1584.628906,1830.115967 1587.564331,1824.970703 
	C1604.046875,1796.079956 1620.215088,1767.009766 1636.463745,1737.985718 
	C1638.041748,1735.166992 1639.435791,1732.245117 1641.326660,1728.571533 
	C1628.133423,1728.571533 1615.994995,1728.571533 1603.281372,1728.571533 
	C1591.341553,1751.361206 1579.374023,1774.203979 1566.447510,1798.876953 
	C1559.137207,1784.977905 1552.696167,1772.731934 1545.642578,1759.142578 
M1961.038818,1866.730835 
	C1954.826172,1866.730835 1948.613647,1866.730835 1941.386353,1866.730835 
	C1941.386353,1820.003174 1941.386353,1774.552124 1941.386353,1728.707031 
	C1929.555054,1728.707031 1918.797729,1728.707031 1907.734131,1728.707031 
	C1907.734131,1785.802612 1907.734131,1842.284668 1907.734131,1899.115234 
	C1940.717163,1899.115234 1973.158325,1899.115234 2006.243286,1899.115234 
	C2006.566772,1888.113037 2006.704224,1877.674805 2006.189941,1866.731567 
	C1990.958618,1866.731567 1976.992065,1866.731567 1961.038818,1866.730835 
M2300.039062,1879.175903 
	C2302.702637,1885.931396 2305.366455,1892.686890 2307.964111,1899.274902 
	C2320.326416,1899.274902 2331.885498,1899.274902 2344.169678,1899.274902 
	C2359.487793,1858.952637 2374.768799,1818.727539 2390.366211,1777.670166 
	C2377.902100,1777.670166 2366.774658,1777.670166 2355.504150,1777.670166 
	C2345.825195,1804.675903 2336.310059,1831.229614 2326.762207,1857.771851 
	C2326.698486,1857.949219 2326.190430,1858.000122 2325.880615,1858.046143 
	C2325.574463,1858.091675 2325.255859,1858.056152 2324.531738,1858.056152 
	C2315.225830,1831.294434 2305.865967,1804.378540 2296.382080,1777.105713 
	C2289.960205,1777.105713 2284.341553,1777.077393 2278.723389,1777.113647 
	C2273.263916,1777.148926 2267.804932,1777.250488 2262.208740,1777.324585 
	C2262.502930,1779.442017 2262.473633,1780.130249 2262.698242,1780.722168 
	C2274.968994,1813.054443 2287.261475,1845.378418 2300.039062,1879.175903 
M3048.426025,1286.415039 
	C3046.448242,1285.198486 3044.566406,1283.776978 3042.477539,1282.797852 
	C3026.062500,1275.104614 3006.841553,1281.315186 2997.644775,1297.204468 
	C2988.625000,1312.787720 2993.389160,1333.000610 3008.432617,1342.973755 
	C3023.617188,1353.040527 3043.495850,1349.727783 3054.908447,1335.446411 
	C3065.641357,1322.015503 3065.640137,1300.317749 3048.426025,1286.415039 
z"/>
<path fill="#0C24A9" opacity="1.000000" stroke="none" 
	d="
M826.865601,1377.076172 
	C775.704773,1301.013672 811.674744,1197.788696 900.072937,1171.331787 
	C980.728699,1147.192261 1063.768921,1202.795776 1072.431396,1286.691895 
	C1081.031006,1369.980957 1013.448914,1440.943726 929.833496,1435.537354 
	C886.729797,1432.750488 852.518738,1412.819702 826.865601,1377.076172 
z"/>
<path fill="#0E26AA" opacity="1.000000" stroke="none" 
	d="
M2381.656738,1579.038086 
	C2357.576172,1607.191895 2326.810547,1616.229980 2291.685791,1614.899170 
	C2230.319336,1612.573975 2181.727295,1559.088623 2175.584961,1503.221069 
	C2171.690186,1467.799194 2177.211914,1434.794067 2198.043945,1405.287964 
	C2229.307861,1361.005859 2280.058105,1342.349976 2331.552490,1355.799072 
	C2349.419678,1360.465698 2364.689941,1369.458862 2377.432129,1382.785522 
	C2379.724365,1385.182861 2381.945557,1387.647705 2385.752441,1391.757935 
	C2385.752441,1379.695679 2385.752441,1369.395386 2385.752441,1358.639648 
	C2404.319824,1358.639648 2421.526123,1358.639648 2438.768066,1358.639648 
	C2441.003418,1366.360840 2442.025635,1570.486694 2439.902588,1608.236938 
	C2431.206787,1608.276367 2422.361328,1608.332153 2413.516113,1608.352539 
	C2404.865967,1608.372559 2396.215820,1608.356812 2386.397217,1608.356812 
	C2386.397217,1597.536011 2386.397217,1587.119873 2386.397217,1574.522949 
	C2383.816162,1576.895264 2382.973633,1577.669556 2381.656738,1579.038086 
M2277.463379,1557.989502 
	C2298.402832,1565.434692 2319.331299,1565.436890 2339.898193,1556.968018 
	C2365.546143,1546.407104 2387.916992,1519.193481 2386.173096,1479.846436 
	C2384.779297,1448.399170 2370.517334,1424.440308 2342.193359,1411.334961 
	C2313.278076,1397.955688 2284.345459,1400.308960 2258.311768,1420.151611 
	C2213.418457,1454.368896 2219.062256,1533.754395 2277.463379,1557.989502 
z"/>
<path fill="#0C24A9" opacity="1.000000" stroke="none" 
	d="
M1225.744751,1555.725830 
	C1225.782349,1578.703369 1226.483276,1601.702759 1225.728882,1624.654175 
	C1223.732666,1685.382568 1175.881470,1739.432251 1115.952393,1750.088501 
	C1027.771240,1765.768433 955.507690,1696.438599 955.980591,1615.549927 
	C956.093567,1596.231445 956.015076,1576.911987 956.848938,1556.786743 
	C966.472473,1559.895752 975.187683,1564.014648 984.086731,1567.687988 
	C1011.311218,1578.925781 1039.768799,1585.425049 1069.044922,1587.492310 
	C1083.897827,1588.541016 1098.915039,1587.262695 1114.662109,1587.206787 
	C1119.094360,1586.934204 1122.725220,1586.515259 1126.349609,1586.044556 
	C1145.471558,1583.560791 1164.325195,1579.964233 1183.007080,1572.418213 
	C1194.402466,1568.022827 1205.019897,1563.679077 1215.666870,1559.409302 
	C1218.984985,1558.078735 1222.383179,1556.948120 1225.744751,1555.725830 
z"/>
<path fill="#0E26AA" opacity="1.000000" stroke="none" 
	d="
M2713.709717,1635.893066 
	C2707.897217,1647.212036 2702.863037,1658.124512 2696.707275,1668.362427 
	C2684.557373,1688.568604 2666.560059,1700.815063 2643.329590,1705.202759 
	C2628.905029,1707.927246 2614.376221,1708.874023 2599.241211,1707.990601 
	C2599.241211,1691.381104 2599.241211,1675.208374 2599.241211,1658.395020 
	C2603.105957,1658.184570 2606.340576,1658.042725 2609.570312,1657.826660 
	C2626.842285,1656.670898 2640.858643,1649.377686 2651.304932,1635.497192 
	C2653.302490,1632.843384 2655.111816,1630.028931 2656.806152,1627.168945 
	C2669.063232,1606.476074 2669.045654,1606.034790 2659.646240,1584.304688 
	C2628.604980,1512.540894 2597.581543,1440.769165 2566.577881,1368.989014 
	C2565.155273,1365.695557 2563.987061,1362.292114 2562.509521,1358.443115 
	C2582.620361,1358.443115 2601.877686,1358.443115 2621.485840,1358.443115 
	C2633.782715,1388.430664 2646.006836,1418.283936 2658.265625,1448.123047 
	C2670.382568,1477.616577 2682.534668,1507.095459 2696.584961,1536.864868 
	C2717.566895,1477.478516 2738.549072,1418.092041 2759.592285,1358.532837 
	C2778.712402,1358.532837 2797.270264,1358.532837 2816.476807,1358.532837 
	C2816.229248,1360.190552 2816.263184,1361.785156 2815.745605,1363.174072 
	C2782.863037,1451.391113 2749.937744,1539.592407 2717.002441,1627.789795 
	C2716.071533,1630.282227 2714.991455,1632.718994 2713.709717,1635.893066 
z"/>
<path fill="#0E26AA" opacity="1.000000" stroke="none" 
	d="
M3294.564453,1441.615723 
	C3289.519531,1444.103394 3289.076172,1439.985107 3287.684082,1437.743896 
	C3276.820801,1420.250732 3260.872070,1410.176636 3240.968506,1406.463989 
	C3187.664062,1396.521362 3142.931152,1437.588501 3148.435059,1491.693726 
	C3155.002197,1556.255859 3224.360107,1579.431519 3269.645752,1548.077393 
	C3278.442139,1541.986694 3285.192139,1532.940430 3293.791016,1524.354126 
	C3300.221924,1527.978027 3307.978760,1532.305786 3315.692627,1536.708496 
	C3323.145752,1540.962402 3330.554688,1545.293945 3338.509766,1549.895996 
	C3332.546387,1561.607300 3325.037354,1571.227539 3316.104248,1579.703491 
	C3290.410156,1604.082886 3259.455811,1615.584839 3224.353027,1614.973145 
	C3169.709229,1614.020996 3128.754639,1589.364014 3105.755371,1539.634399 
	C3076.524414,1476.430176 3097.427246,1388.494263 3179.214355,1359.871338 
	C3230.905029,1341.781372 3279.146729,1351.011353 3319.407959,1390.582031 
	C3326.781250,1397.829102 3332.504883,1406.364258 3337.554443,1416.465942 
	C3323.120361,1424.921997 3309.138428,1433.113159 3294.564453,1441.615723 
z"/>
<path fill="#0E26AA" opacity="1.000000" stroke="none" 
	d="
M3510.768066,1471.285645 
	C3517.626465,1474.871704 3524.000244,1477.791504 3529.930176,1481.433838 
	C3571.593262,1507.023071 3566.893799,1567.928223 3534.933350,1592.196655 
	C3520.842285,1602.896362 3505.268066,1609.902588 3487.879883,1612.808228 
	C3462.111572,1617.114380 3436.759766,1615.785767 3412.240479,1606.131958 
	C3388.580078,1596.816284 3371.108398,1580.788818 3359.926270,1556.432983 
	C3375.075684,1547.585815 3390.167969,1538.771851 3405.982666,1529.536011 
	C3407.550781,1532.418579 3408.927490,1534.898438 3410.257568,1537.403442 
	C3417.001221,1550.103638 3427.096436,1558.654785 3441.082764,1562.458984 
	C3455.218018,1566.303467 3469.417969,1566.448730 3483.490967,1562.551880 
	C3487.872803,1561.338501 3492.199951,1559.148926 3495.931396,1556.523682 
	C3504.683105,1550.366211 3509.685547,1532.233643 3496.632080,1522.720581 
	C3489.244141,1517.336426 3480.607178,1513.243774 3471.976562,1510.092896 
	C3460.765137,1505.999878 3448.780273,1504.038696 3437.533691,1500.024536 
	C3425.371826,1495.683350 3413.089844,1491.077148 3401.880859,1484.772461 
	C3356.807129,1459.420654 3364.273193,1399.738159 3392.052002,1376.051147 
	C3406.958252,1363.340332 3423.916016,1355.695801 3443.201904,1353.088623 
	C3466.104980,1349.992676 3488.387451,1352.061646 3509.587646,1361.863281 
	C3528.874268,1370.779907 3543.645508,1384.509277 3554.296387,1403.989502 
	C3539.092285,1412.537109 3524.375977,1420.810425 3509.283447,1429.295288 
	C3508.089600,1427.687256 3507.042969,1426.469482 3506.206055,1425.121460 
	C3492.743652,1403.442139 3465.091797,1394.666626 3441.521729,1404.765991 
	C3432.729980,1408.533081 3426.644287,1414.589600 3425.586182,1424.737427 
	C3424.536621,1434.804443 3429.623047,1441.906006 3437.757080,1445.813477 
	C3449.373535,1451.393799 3461.615967,1455.776978 3473.828125,1459.982300 
	C3485.756104,1464.089844 3497.982422,1467.331787 3510.768066,1471.285645 
z"/>
<path fill="#0E26AA" opacity="1.000000" stroke="none" 
	d="
M1504.936646,1392.057861 
	C1504.936890,1383.842041 1504.936890,1376.613525 1504.936890,1369.061157 
	C1523.025513,1369.061157 1539.858398,1369.061157 1557.850098,1369.061157 
	C1557.850098,1373.072510 1557.850098,1376.625977 1557.850098,1380.179321 
	C1557.851196,1420.148926 1557.623657,1460.120728 1558.020508,1500.086304 
	C1558.115234,1509.626709 1559.306274,1519.404907 1561.720825,1528.620972 
	C1566.503052,1546.874268 1578.887451,1558.256470 1597.147827,1562.949219 
	C1609.953735,1566.240112 1622.874268,1566.263428 1635.662354,1562.775513 
	C1657.992432,1556.684814 1671.254150,1539.885498 1673.784668,1514.501465 
	C1674.278931,1509.543335 1674.287354,1504.523560 1674.292236,1499.531982 
	C1674.330933,1459.895508 1674.314453,1420.258911 1674.314941,1380.622437 
	C1674.314941,1377.020996 1674.315063,1373.419678 1674.315063,1369.208008 
	C1691.984985,1369.208008 1708.841675,1369.208008 1726.602661,1369.208008 
	C1726.859497,1371.443481 1727.395264,1373.949219 1727.398193,1376.455444 
	C1727.450439,1420.421997 1727.714844,1464.391357 1727.242188,1508.352905 
	C1727.125366,1519.233887 1725.650269,1530.366577 1722.934937,1540.903076 
	C1714.816040,1572.407715 1695.009888,1594.296631 1664.714600,1605.911865 
	C1632.699951,1618.186157 1600.107544,1618.370605 1568.093506,1606.109375 
	C1530.594238,1591.747070 1510.818848,1563.229492 1506.062744,1523.895142 
	C1505.106812,1515.988159 1505.007324,1507.945312 1504.983032,1499.963623 
	C1504.874268,1464.324463 1504.936035,1428.684814 1504.936646,1392.057861 
z"/>
<path fill="#0E26AA" opacity="1.000000" stroke="none" 
	d="
M2899.436279,1308.098389 
	C2899.436279,1325.026611 2899.436279,1340.972290 2899.436279,1357.971680 
	C2920.086670,1357.971680 2940.219971,1357.971680 2960.881348,1357.971680 
	C2960.881348,1375.832153 2960.881348,1392.639404 2960.881348,1410.167603 
	C2940.697998,1410.167603 2920.785889,1410.167603 2900.279785,1410.167603 
	C2899.956055,1413.359131 2899.476318,1415.903320 2899.472900,1418.448120 
	C2899.424805,1455.750610 2899.431641,1493.053223 2899.456787,1530.355713 
	C2899.458740,1533.015137 2899.553955,1535.692749 2899.868896,1538.330444 
	C2901.098633,1548.633667 2906.427734,1555.785034 2916.718262,1558.143311 
	C2922.498779,1559.468018 2928.531982,1559.990723 2934.477051,1560.224976 
	C2943.061768,1560.563232 2951.669678,1560.311401 2960.849854,1560.311401 
	C2960.849854,1576.243530 2960.849854,1591.768921 2960.849854,1607.327271 
	C2960.344482,1607.690552 2959.844971,1608.344727 2959.269775,1608.420410 
	C2937.047363,1611.343140 2914.784180,1612.589233 2892.839844,1606.874023 
	C2864.843750,1599.582764 2849.390137,1580.614990 2846.125244,1550.208740 
	C2845.380127,1543.268799 2844.992432,1536.256470 2844.985107,1529.276855 
	C2844.906494,1452.673462 2844.935791,1376.069946 2844.935791,1299.466553 
	C2844.935791,1295.893555 2844.935791,1292.320435 2844.935791,1288.443726 
	C2863.399414,1288.443726 2880.665039,1288.443726 2899.303467,1288.443726 
	C2899.348389,1294.742554 2899.392334,1300.929199 2899.436279,1308.098389 
z"/>
<path fill="#0E26AA" opacity="1.000000" stroke="none" 
	d="
M1967.538208,1610.659546 
	C1955.356079,1609.873779 1943.907593,1610.066284 1932.845581,1608.092163 
	C1901.464478,1602.492065 1883.963013,1583.288574 1880.200195,1551.365112 
	C1879.227051,1543.108276 1878.645752,1534.753906 1878.633179,1526.443237 
	C1878.516846,1449.790405 1878.565186,1373.137329 1878.565552,1296.484253 
	C1878.565552,1294.195312 1878.565430,1291.906372 1878.565430,1288.875244 
	C1896.649170,1288.875244 1914.122925,1288.875244 1932.654907,1288.875244 
	C1932.654907,1311.384155 1932.654907,1334.204224 1932.654907,1357.774170 
	C1953.572998,1357.774170 1973.469116,1357.774170 1993.756836,1357.774170 
	C1996.339600,1366.830200 1994.696899,1375.436035 1994.996338,1383.895020 
	C1995.290527,1392.203979 1995.060425,1400.531616 1995.060425,1410.276978 
	C1974.631104,1410.552002 1954.521729,1410.240845 1933.866089,1410.466553 
	C1933.565186,1413.580933 1933.105957,1416.139648 1933.102661,1418.698853 
	C1933.056030,1454.359131 1933.062378,1490.019531 1933.089233,1525.679810 
	C1933.091553,1528.674438 1933.238892,1531.676514 1933.481445,1534.661865 
	C1934.782104,1550.671265 1941.675537,1558.209717 1957.774414,1559.685059 
	C1967.360962,1560.563599 1977.078247,1560.020752 1986.736694,1560.107300 
	C1989.047485,1560.128052 1991.358398,1560.110352 1994.368652,1560.110352 
	C1994.368652,1575.969971 1994.368652,1591.481445 1994.368652,1608.234863 
	C1986.251221,1610.665649 1977.222656,1609.744995 1967.538208,1610.659546 
z"/>
<path fill="#0777CA" opacity="1.000000" stroke="none" 
	d="
M1077.716064,1399.419067 
	C1081.514404,1392.856201 1085.544678,1386.415039 1089.067261,1379.707275 
	C1099.304688,1360.212891 1105.274902,1339.387939 1108.800293,1316.782471 
	C1113.011353,1317.520142 1116.604370,1318.556885 1119.422974,1320.641113 
	C1124.459595,1324.365723 1129.084717,1328.659424 1133.783936,1332.825439 
	C1151.853149,1348.844116 1169.125122,1365.698853 1187.730347,1381.191284 
	C1210.854980,1400.446899 1232.566895,1421.407959 1254.737671,1441.797119 
	C1270.801270,1456.569580 1286.577637,1471.654175 1302.626099,1486.443481 
	C1303.875610,1487.594849 1306.263062,1487.511597 1308.121582,1488.002197 
	C1290.227661,1510.712036 1267.980957,1528.438721 1243.913208,1544.079346 
	C1243.077515,1544.622559 1242.207886,1545.113403 1239.984375,1545.698364 
	C1233.852173,1542.271973 1228.748047,1539.152710 1224.393188,1535.206543 
	C1212.855835,1524.751343 1201.678223,1513.899902 1190.287842,1503.281006 
	C1181.812134,1495.379150 1173.336060,1487.471680 1164.668457,1479.782837 
	C1148.841187,1465.742554 1132.837280,1451.901611 1116.973022,1437.903076 
	C1105.318970,1427.619507 1093.684692,1417.309570 1082.252686,1406.781982 
	C1080.211426,1404.902222 1079.202026,1401.901978 1077.716064,1399.419067 
z"/>
<path fill="#0E26AA" opacity="1.000000" stroke="none" 
	d="
M1776.936523,1473.999634 
	C1776.936768,1411.734985 1776.936768,1350.470215 1776.936768,1288.671631 
	C1795.314697,1288.671631 1812.786621,1288.671631 1830.849854,1288.671631 
	C1830.849854,1395.110962 1830.849854,1501.262207 1830.849854,1607.901367 
	C1813.121216,1607.901367 1795.588013,1607.901367 1776.936401,1607.901367 
	C1776.936401,1563.409302 1776.936401,1519.204468 1776.936523,1473.999634 
z"/>
<path fill="#0E26AA" opacity="1.000000" stroke="none" 
	d="
M2480.565430,1310.069092 
	C2480.565430,1302.480225 2480.565430,1295.879272 2480.565430,1288.720215 
	C2498.937744,1288.720215 2516.424316,1288.720215 2534.493652,1288.720215 
	C2534.493652,1395.009644 2534.493652,1501.182007 2534.493652,1607.871826 
	C2516.779297,1607.871826 2499.253662,1607.871826 2480.565430,1607.871826 
	C2480.565430,1508.771606 2480.565430,1409.914429 2480.565430,1310.069092 
z"/>
<path fill="#0950BB" opacity="1.000000" stroke="none" 
	d="
M1365.129028,1386.282593 
	C1359.548584,1406.666992 1350.794800,1425.646484 1338.391357,1443.799072 
	C1334.139282,1442.430664 1330.823242,1441.352661 1328.426147,1439.234619 
	C1319.229492,1431.108643 1310.333984,1422.641846 1301.313843,1414.315674 
	C1293.027222,1406.666748 1284.819458,1398.928955 1276.409424,1391.417847 
	C1258.928589,1375.805420 1241.179565,1360.490112 1223.839478,1344.723999 
	C1209.656128,1331.828125 1196.079102,1318.265991 1181.919800,1305.342651 
	C1164.542603,1289.482544 1146.923828,1273.882935 1129.197632,1258.413574 
	C1126.061157,1255.676636 1121.888550,1254.127075 1118.194336,1252.029297 
	C1124.991211,1231.632568 1137.473389,1215.091675 1154.188965,1200.795898 
	C1167.010620,1211.742676 1178.686646,1222.538818 1190.364380,1233.333130 
	C1190.852905,1233.784790 1191.355347,1234.221436 1191.855347,1234.660767 
	C1207.779663,1248.651245 1223.754639,1262.584595 1239.601562,1276.662231 
	C1245.008911,1281.465942 1249.974121,1286.765015 1255.349487,1291.606812 
	C1271.845459,1306.465088 1288.425171,1321.230713 1305.006104,1335.994385 
	C1316.139038,1345.906982 1327.418701,1355.656372 1338.457520,1365.671997 
	C1344.306763,1370.979126 1349.537476,1376.985840 1355.541260,1382.096436 
	C1358.083008,1384.260254 1361.894653,1384.932373 1365.129028,1386.282593 
z"/>
<path fill="#0E26AA" opacity="1.000000" stroke="none" 
	d="
M2089.976562,1397.040161 
	C2106.132324,1368.929932 2130.831787,1358.647705 2161.695312,1358.376587 
	C2161.695312,1377.638916 2161.695312,1396.111572 2161.695312,1414.438232 
	C2152.383789,1415.684326 2143.368652,1416.050049 2134.796387,1418.190552 
	C2105.355957,1425.542114 2088.518311,1445.914551 2087.926270,1476.291626 
	C2087.160400,1515.590942 2087.544434,1554.912842 2087.436279,1594.224976 
	C2087.426270,1597.868164 2087.434814,1601.511475 2087.434814,1605.770874 
	C2069.744385,1605.770874 2052.572266,1605.770874 2034.853027,1605.770874 
	C2034.853027,1525.191895 2034.853027,1444.709229 2034.853027,1363.399048 
	C2051.860840,1363.399048 2068.948730,1363.399048 2087.439453,1363.399048 
	C2087.439453,1371.856201 2087.269531,1380.389282 2087.532715,1388.908813 
	C2087.623291,1391.848755 2088.792725,1394.755249 2089.976562,1397.040161 
z"/>
<path fill="#03C2E8" opacity="1.000000" stroke="none" 
	d="
M1113.857910,1587.036377 
	C1098.915039,1587.262695 1083.897827,1588.541016 1069.044922,1587.492310 
	C1039.768799,1585.425049 1011.311218,1578.925781 984.086731,1567.687988 
	C975.187683,1564.014648 966.472473,1559.895752 956.957397,1555.835449 
	C951.168884,1552.526489 946.108154,1549.343262 941.021423,1546.201904 
	C901.781860,1521.968506 870.039856,1490.233765 845.788269,1451.010132 
	C844.409241,1448.779785 843.187622,1446.452271 842.203613,1443.285034 
	C887.493164,1470.697388 935.414246,1478.389404 987.280273,1464.941162 
	C998.770447,1476.011108 1009.112183,1486.699097 1020.068665,1496.714600 
	C1036.438599,1511.678711 1053.280762,1526.125122 1069.842896,1540.880737 
	C1077.761108,1547.935181 1085.589233,1555.096680 1093.285767,1562.391724 
	C1099.320679,1568.112061 1105.248291,1573.966797 1110.877930,1580.079956 
	C1112.489380,1581.829712 1112.897827,1584.687012 1113.857910,1587.036377 
z"/>
<path fill="#05A4F3" opacity="1.000000" stroke="none" 
	d="
M2217.839844,1829.754883 
	C2209.510498,1868.031372 2186.936523,1892.108154 2149.680176,1900.864502 
	C2101.174316,1912.265137 2054.005371,1882.293579 2043.162720,1834.290771 
	C2032.282959,1786.123901 2061.025879,1738.661011 2107.996094,1727.232178 
	C2157.281738,1715.240112 2206.735107,1745.514404 2217.096436,1794.150635 
	C2219.543457,1805.637573 2219.719971,1817.270264 2217.839844,1829.754883 
M2079.966309,1838.515381 
	C2090.824951,1862.456421 2117.354248,1874.931885 2145.265869,1867.737671 
	C2167.096680,1862.110596 2187.546387,1841.243774 2184.533691,1808.179199 
	C2182.458252,1785.402588 2170.947510,1769.198486 2149.607910,1761.486328 
	C2127.852539,1753.623901 2107.213379,1757.079468 2090.679199,1774.057251 
	C2073.001221,1792.209717 2071.273438,1813.933472 2079.966309,1838.515381 
z"/>
<path fill="#05A4F3" opacity="1.000000" stroke="none" 
	d="
M1721.613281,1894.480957 
	C1664.275269,1865.359009 1661.456665,1798.880737 1686.754761,1763.516968 
	C1709.382812,1731.885254 1740.688721,1719.318848 1778.394409,1726.583008 
	C1813.762085,1733.396729 1837.177979,1755.612793 1846.719727,1790.500366 
	C1860.296875,1840.143433 1830.248413,1889.958252 1780.841187,1900.805542 
	C1760.798584,1905.205933 1741.125000,1903.486694 1721.613281,1894.480957 
M1786.574219,1763.985718 
	C1774.889893,1757.881104 1762.435913,1756.419434 1749.693604,1758.889160 
	C1721.353760,1764.381958 1704.336304,1787.294556 1705.856689,1817.945190 
	C1706.943604,1839.857666 1717.507202,1856.232910 1737.619385,1864.861328 
	C1758.461548,1873.802979 1778.724854,1871.458862 1796.669434,1856.780884 
	C1823.813232,1834.578613 1823.090576,1784.429565 1786.574219,1763.985718 
z"/>
<path fill="#0765C3" opacity="1.000000" stroke="none" 
	d="
M1117.745850,1252.614990 
	C1121.888550,1254.127075 1126.061157,1255.676636 1129.197632,1258.413574 
	C1146.923828,1273.882935 1164.542603,1289.482544 1181.919800,1305.342651 
	C1196.079102,1318.265991 1209.656128,1331.828125 1223.839478,1344.723999 
	C1241.179565,1360.490112 1258.928589,1375.805420 1276.409424,1391.417847 
	C1284.819458,1398.928955 1293.027222,1406.666748 1301.313843,1414.315674 
	C1310.333984,1422.641846 1319.229492,1431.108643 1328.426147,1439.234619 
	C1330.823242,1441.352661 1334.139282,1442.430664 1337.772461,1444.082764 
	C1337.218994,1447.159180 1336.397827,1450.475586 1334.552734,1453.061279 
	C1326.298340,1464.628662 1317.752319,1475.987793 1308.716553,1487.712158 
	C1306.263062,1487.511597 1303.875610,1487.594849 1302.626099,1486.443481 
	C1286.577637,1471.654175 1270.801270,1456.569580 1254.737671,1441.797119 
	C1232.566895,1421.407959 1210.854980,1400.446899 1187.730347,1381.191284 
	C1169.125122,1365.698853 1151.853149,1348.844116 1133.783936,1332.825439 
	C1129.084717,1328.659424 1124.459595,1324.365723 1119.422974,1320.641113 
	C1116.604370,1318.556885 1113.011353,1317.520142 1109.047363,1316.000244 
	C1107.750366,1294.549927 1109.127197,1273.390015 1117.745850,1252.614990 
z"/>
<path fill="#0A39B2" opacity="1.000000" stroke="none" 
	d="
M1365.482422,1385.602051 
	C1361.894653,1384.932373 1358.083008,1384.260254 1355.541260,1382.096436 
	C1349.537476,1376.985840 1344.306763,1370.979126 1338.457520,1365.671997 
	C1327.418701,1355.656372 1316.139038,1345.906982 1305.006104,1335.994385 
	C1288.425171,1321.230713 1271.845459,1306.465088 1255.349487,1291.606812 
	C1249.974121,1286.765015 1245.008911,1281.465942 1239.601562,1276.662231 
	C1223.754639,1262.584595 1207.779663,1248.651245 1191.855347,1234.660767 
	C1191.355347,1234.221436 1190.852905,1233.784790 1190.364380,1233.333130 
	C1178.686646,1222.538818 1167.010620,1211.742676 1154.823120,1200.563599 
	C1166.403442,1188.055176 1181.079590,1180.150513 1198.272705,1174.050781 
	C1201.106445,1173.402832 1202.561035,1172.808350 1204.015625,1172.213745 
	C1204.015625,1172.213745 1204.165405,1171.979980 1204.981445,1172.004395 
	C1208.299316,1173.454712 1211.030151,1174.595703 1213.245728,1176.377686 
	C1216.079712,1178.656860 1218.365479,1181.605225 1221.117920,1184.000366 
	C1235.529297,1196.540527 1250.140015,1208.854370 1264.437744,1221.521851 
	C1279.056030,1234.473145 1293.443604,1247.686890 1307.839478,1260.886841 
	C1325.358887,1276.950928 1342.669922,1293.244263 1360.316040,1309.166870 
	C1365.329346,1313.690430 1369.831543,1319.460449 1377.483521,1319.975220 
	C1376.392578,1336.643311 1375.587769,1353.293091 1368.900513,1369.072754 
	C1366.847046,1373.918457 1366.801025,1379.614868 1365.482422,1385.602051 
z"/>
<path fill="#05A4F3" opacity="1.000000" stroke="none" 
	d="
M2487.636475,1823.661743 
	C2471.464111,1823.660645 2456.244629,1823.660645 2439.921387,1823.660645 
	C2442.247559,1791.391357 2444.484863,1760.352783 2446.764648,1728.728638 
	C2479.193604,1728.728638 2510.960693,1728.728638 2543.377441,1728.728638 
	C2543.377441,1738.778076 2543.377441,1748.601440 2543.377441,1759.856445 
	C2522.084229,1760.236084 2500.655029,1759.773682 2478.648682,1760.114502 
	C2477.838135,1770.273438 2477.104248,1779.469727 2476.269531,1789.928955 
	C2480.397461,1790.039185 2484.244141,1789.929810 2488.046631,1790.287354 
	C2496.299316,1791.063477 2504.793457,1791.082275 2512.718994,1793.183105 
	C2535.811035,1799.304810 2550.569092,1817.657715 2551.963379,1840.536865 
	C2553.624512,1867.799683 2542.926025,1887.494141 2519.913330,1897.122681 
	C2498.544678,1906.063599 2477.014648,1905.384155 2456.224365,1894.732178 
	C2444.258545,1888.601196 2436.500244,1879.276611 2431.680176,1865.800049 
	C2435.941650,1863.268677 2440.420410,1860.582275 2444.924805,1857.940063 
	C2449.510986,1855.250000 2454.122559,1852.603516 2459.072998,1849.735474 
	C2460.007568,1850.790527 2461.212158,1851.594482 2461.620117,1852.693848 
	C2468.166992,1870.341187 2492.821533,1873.078857 2506.269043,1866.364502 
	C2514.220703,1862.394287 2517.921143,1855.718750 2518.043213,1847.011230 
	C2518.171143,1837.879883 2514.511719,1830.388794 2506.026123,1826.888550 
	C2500.679932,1824.683105 2494.432617,1824.663208 2487.636475,1823.661743 
z"/>
<path fill="#0E26AA" opacity="1.000000" stroke="none" 
	d="
M3000.564941,1597.443359 
	C3000.565186,1526.680054 3000.565186,1456.854614 3000.565186,1386.509766 
	C3019.043701,1386.509766 3036.514893,1386.509766 3054.529541,1386.509766 
	C3054.529541,1460.272949 3054.529541,1533.737427 3054.529541,1607.795776 
	C3037.023682,1607.795776 3019.520020,1607.795776 3001.119385,1607.795776 
	C3000.938232,1604.718384 3000.751465,1601.549683 3000.564941,1597.443359 
z"/>
<path fill="#059AD8" opacity="1.000000" stroke="none" 
	d="
M1077.138672,1399.784912 
	C1079.202026,1401.901978 1080.211426,1404.902222 1082.252686,1406.781982 
	C1093.684692,1417.309570 1105.318970,1427.619507 1116.973022,1437.903076 
	C1132.837280,1451.901611 1148.841187,1465.742554 1164.668457,1479.782837 
	C1173.336060,1487.471680 1181.812134,1495.379150 1190.287842,1503.281006 
	C1201.678223,1513.899902 1212.855835,1524.751343 1224.393188,1535.206543 
	C1228.748047,1539.152710 1233.852173,1542.271973 1239.311279,1545.846436 
	C1235.549316,1548.867188 1231.090698,1551.809448 1226.188477,1555.238770 
	C1222.383179,1556.948120 1218.984985,1558.078735 1215.666870,1559.409302 
	C1205.019897,1563.679077 1194.402466,1568.022827 1182.881592,1571.681396 
	C1180.266846,1568.653809 1178.910278,1565.866333 1176.762573,1563.979492 
	C1162.601807,1551.538696 1148.046387,1539.540405 1134.050415,1526.920166 
	C1115.594849,1510.279053 1097.629639,1493.095459 1079.264404,1476.352539 
	C1070.226807,1468.113281 1060.544189,1460.577148 1051.585205,1452.258057 
	C1047.097046,1448.090698 1041.199097,1444.786621 1039.913330,1437.907104 
	C1053.485718,1426.638184 1066.197388,1414.533813 1077.138672,1399.784912 
z"/>
<path fill="#03AEE0" opacity="1.000000" stroke="none" 
	d="
M1039.282959,1438.033813 
	C1041.199097,1444.786621 1047.097046,1448.090698 1051.585205,1452.258057 
	C1060.544189,1460.577148 1070.226807,1468.113281 1079.264404,1476.352539 
	C1097.629639,1493.095459 1115.594849,1510.279053 1134.050415,1526.920166 
	C1148.046387,1539.540405 1162.601807,1551.538696 1176.762573,1563.979492 
	C1178.910278,1565.866333 1180.266846,1568.653809 1182.114868,1571.761475 
	C1164.325195,1579.964233 1145.471558,1583.560791 1126.349609,1586.044556 
	C1122.725220,1586.515259 1119.094360,1586.934204 1114.662109,1587.206787 
	C1112.897827,1584.687012 1112.489380,1581.829712 1110.877930,1580.079956 
	C1105.248291,1573.966797 1099.320679,1568.112061 1093.285767,1562.391724 
	C1085.589233,1555.096680 1077.761108,1547.935181 1069.842896,1540.880737 
	C1053.280762,1526.125122 1036.438599,1511.678711 1020.068665,1496.714600 
	C1009.112183,1486.699097 998.770447,1476.011108 988.058777,1464.956421 
	C1003.627869,1458.394897 1019.001892,1451.906494 1033.884277,1442.064087 
	C1035.270508,1441.507568 1035.603760,1441.198242 1035.874878,1440.821899 
	C1036.800781,1439.934814 1037.726685,1439.047729 1039.282959,1438.033813 
z"/>
<path fill="#0E26AA" opacity="1.000000" stroke="none" 
	d="
M1377.706299,1319.063110 
	C1369.831543,1319.460449 1365.329346,1313.690430 1360.316040,1309.166870 
	C1342.669922,1293.244263 1325.358887,1276.950928 1307.839478,1260.886841 
	C1293.443604,1247.686890 1279.056030,1234.473145 1264.437744,1221.521851 
	C1250.140015,1208.854370 1235.529297,1196.540527 1221.117920,1184.000366 
	C1218.365479,1181.605225 1216.079712,1178.656860 1213.245728,1176.377686 
	C1211.030151,1174.595703 1208.299316,1173.454712 1205.096924,1172.081299 
	C1229.769653,1163.294922 1255.388550,1163.757690 1280.875366,1171.059326 
	C1341.834229,1188.522949 1379.615845,1244.987305 1378.328857,1301.180176 
	C1378.199219,1306.837280 1378.062500,1312.494019 1377.706299,1319.063110 
z"/>
<path fill="#05A4F3" opacity="1.000000" stroke="none" 
	d="
M1545.948975,1759.814209 
	C1552.696167,1772.731934 1559.137207,1784.977905 1566.447510,1798.876953 
	C1579.374023,1774.203979 1591.341553,1751.361206 1603.281372,1728.571533 
	C1615.994995,1728.571533 1628.133423,1728.571533 1641.326660,1728.571533 
	C1639.435791,1732.245117 1638.041748,1735.166992 1636.463745,1737.985718 
	C1620.215088,1767.009766 1604.046875,1796.079956 1587.564331,1824.970703 
	C1584.628906,1830.115967 1583.304688,1835.155640 1583.391235,1841.010986 
	C1583.627319,1856.982544 1583.499878,1872.960205 1583.456543,1888.935181 
	C1583.447754,1892.171387 1583.176147,1895.406860 1583.003052,1899.131226 
	C1571.798462,1899.131226 1561.275513,1899.131226 1550.027588,1899.131226 
	C1549.853149,1896.162476 1549.544189,1893.254639 1549.534546,1890.345703 
	C1549.484619,1875.369263 1549.146729,1860.380249 1549.651611,1845.420654 
	C1549.944702,1836.735962 1547.684692,1829.319580 1543.411011,1821.859375 
	C1527.539673,1794.153687 1512.071777,1766.216919 1496.485596,1738.348267 
	C1494.905151,1735.522339 1493.548828,1732.571167 1491.620483,1728.750732 
	C1504.699097,1728.750732 1516.782349,1728.750732 1529.585938,1728.750732 
	C1534.795410,1738.611084 1540.218994,1748.876831 1545.948975,1759.814209 
z"/>
<path fill="#05A4F3" opacity="1.000000" stroke="none" 
	d="
M1962.032104,1866.731201 
	C1976.992065,1866.731567 1990.958618,1866.731567 2006.189941,1866.731567 
	C2006.704224,1877.674805 2006.566772,1888.113037 2006.243286,1899.115234 
	C1973.158325,1899.115234 1940.717163,1899.115234 1907.734131,1899.115234 
	C1907.734131,1842.284668 1907.734131,1785.802612 1907.734131,1728.707031 
	C1918.797729,1728.707031 1929.555054,1728.707031 1941.386353,1728.707031 
	C1941.386353,1774.552124 1941.386353,1820.003174 1941.386353,1866.730835 
	C1948.613647,1866.730835 1954.826172,1866.730835 1962.032104,1866.731201 
z"/>
<path fill="#05A4F3" opacity="1.000000" stroke="none" 
	d="
M2299.795410,1878.439575 
	C2287.261475,1845.378418 2274.968994,1813.054443 2262.698242,1780.722168 
	C2262.473633,1780.130249 2262.502930,1779.442017 2262.208740,1777.324585 
	C2267.804932,1777.250488 2273.263916,1777.148926 2278.723389,1777.113647 
	C2284.341553,1777.077393 2289.960205,1777.105713 2296.382080,1777.105713 
	C2305.865967,1804.378540 2315.225830,1831.294434 2324.531738,1858.056152 
	C2325.255859,1858.056152 2325.574463,1858.091675 2325.880615,1858.046143 
	C2326.190430,1858.000122 2326.698486,1857.949219 2326.762207,1857.771851 
	C2336.310059,1831.229614 2345.825195,1804.675903 2355.504150,1777.670166 
	C2366.774658,1777.670166 2377.902100,1777.670166 2390.366211,1777.670166 
	C2374.768799,1818.727539 2359.487793,1858.952637 2344.169678,1899.274902 
	C2331.885498,1899.274902 2320.326416,1899.274902 2307.964111,1899.274902 
	C2305.366455,1892.686890 2302.702637,1885.931396 2299.795410,1878.439575 
z"/>
<path fill="#0E26AA" opacity="1.000000" stroke="none" 
	d="
M3048.990234,1286.871826 
	C3065.640137,1300.317749 3065.641357,1322.015503 3054.908447,1335.446411 
	C3043.495850,1349.727783 3023.617188,1353.040527 3008.432617,1342.973755 
	C2993.389160,1333.000610 2988.625000,1312.787720 2997.644775,1297.204468 
	C3006.841553,1281.315186 3026.062500,1275.104614 3042.477539,1282.797852 
	C3044.566406,1283.776978 3046.448242,1285.198486 3048.990234,1286.871826 
z"/>
<path fill="#0E26AA" opacity="1.000000" stroke="none" 
	d="
M1203.404297,1172.160156 
	C1202.561035,1172.808350 1201.106445,1173.402832 1199.029785,1174.059448 
	C1199.869385,1173.449829 1201.331299,1172.778320 1203.404297,1172.160156 
z"/>
<path fill="#059AD8" opacity="1.000000" stroke="none" 
	d="
M1035.504883,1440.864502 
	C1035.603760,1441.198242 1035.270508,1441.507568 1034.570312,1441.907227 
	C1034.366821,1441.536987 1034.656616,1441.151245 1035.504883,1440.864502 
z"/>
<path fill="#FFFFFF" opacity="1.000000" stroke="none" 
	d="
M2276.724121,1557.738770 
	C2219.062256,1533.754395 2213.418457,1454.368896 2258.311768,1420.151611 
	C2284.345459,1400.308960 2313.278076,1397.955688 2342.193359,1411.334961 
	C2370.517334,1424.440308 2384.779297,1448.399170 2386.173096,1479.846436 
	C2387.916992,1519.193481 2365.546143,1546.407104 2339.898193,1556.968018 
	C2319.331299,1565.436890 2298.402832,1565.434692 2276.724121,1557.738770 
z"/>
<path fill="#FFFFFF" opacity="1.000000" stroke="none" 
	d="
M2079.677246,1837.793701 
	C2071.273438,1813.933472 2073.001221,1792.209717 2090.679199,1774.057251 
	C2107.213379,1757.079468 2127.852539,1753.623901 2149.607910,1761.486328 
	C2170.947510,1769.198486 2182.458252,1785.402588 2184.533691,1808.179199 
	C2187.546387,1841.243774 2167.096680,1862.110596 2145.265869,1867.737671 
	C2117.354248,1874.931885 2090.824951,1862.456421 2079.677246,1837.793701 
z"/>
<path fill="#FFFFFF" opacity="1.000000" stroke="none" 
	d="
M1787.243408,1764.326904 
	C1823.090576,1784.429565 1823.813232,1834.578613 1796.669434,1856.780884 
	C1778.724854,1871.458862 1758.461548,1873.802979 1737.619385,1864.861328 
	C1717.507202,1856.232910 1706.943604,1839.857666 1705.856689,1817.945190 
	C1704.336304,1787.294556 1721.353760,1764.381958 1749.693604,1758.889160 
	C1762.435913,1756.419434 1774.889893,1757.881104 1787.243408,1764.326904 
z"/>
</svg>